<svg xmlns="http://www.w3.org/2000/svg" viewBox="0 0 500 500"><g id="freepik--background-complete--inject-12"><rect x="77.43" y="87.73" width="141.92" height="195.73" style="fill:#e0e0e0"></rect><rect x="83.49" y="92.62" width="128.04" height="184.93" style="fill:#fafafa;stroke:#fafafa;stroke-miterlimit:10"></rect><rect x="82.89" y="145.63" width="131" height="2.92" style="fill:#e0e0e0"></rect><rect x="81.14" y="210.54" width="132.74" height="2.92" transform="translate(-64.49 359.51) rotate(-90)" style="fill:#e0e0e0"></rect><rect x="55.58" y="69.31" width="186.35" height="3.63" style="fill:#e0e0e0"></rect><path d="M55.58,81.78s1.7,195.73.05,195.73h36.8V81.78Z" style="fill:#ebebeb"></path><path d="M64.79,86a64.92,64.92,0,0,1-.26-8.15,64.92,64.92,0,0,1,.26-8.15,62.72,62.72,0,0,1,.26,8.15A62.72,62.72,0,0,1,64.79,86Z" style="fill:#e0e0e0"></path><path d="M59.83,86a62.72,62.72,0,0,1-.26-8.15,62.72,62.72,0,0,1,.26-8.15,64.92,64.92,0,0,1,.26,8.15A64.92,64.92,0,0,1,59.83,86Z" style="fill:#e0e0e0"></path><path d="M70.5,86a62.72,62.72,0,0,1-.26-8.15,62.72,62.72,0,0,1,.26-8.15,64.92,64.92,0,0,1,.26,8.15A64.92,64.92,0,0,1,70.5,86Z" style="fill:#e0e0e0"></path><path d="M76.2,86a64.92,64.92,0,0,1-.26-8.15,64.92,64.92,0,0,1,.26-8.15,62.72,62.72,0,0,1,.26,8.15A62.72,62.72,0,0,1,76.2,86Z" style="fill:#e0e0e0"></path><path d="M81.91,86a64.92,64.92,0,0,1-.26-8.15,64.92,64.92,0,0,1,.26-8.15,64.92,64.92,0,0,1,.26,8.15A64.92,64.92,0,0,1,81.91,86Z" style="fill:#e0e0e0"></path><path d="M87.4,86a62.72,62.72,0,0,1-.26-8.15,62.72,62.72,0,0,1,.26-8.15,64.92,64.92,0,0,1,.26,8.15A64.92,64.92,0,0,1,87.4,86Z" style="fill:#e0e0e0"></path><path d="M203.85,81.78s1.7,195.73.06,195.73h36.8V81.78Z" style="fill:#ebebeb"></path><path d="M213.07,86a64.92,64.92,0,0,1-.26-8.15,64.92,64.92,0,0,1,.26-8.15,64.92,64.92,0,0,1,.26,8.15A64.92,64.92,0,0,1,213.07,86Z" style="fill:#e0e0e0"></path><path d="M208.1,86a64.92,64.92,0,0,1-.26-8.15,64.92,64.92,0,0,1,.26-8.15,62.72,62.72,0,0,1,.26,8.15A62.72,62.72,0,0,1,208.1,86Z" style="fill:#e0e0e0"></path><path d="M218.78,86a62.72,62.72,0,0,1-.26-8.15,62.72,62.72,0,0,1,.26-8.15,64.92,64.92,0,0,1,.26,8.15A64.92,64.92,0,0,1,218.78,86Z" style="fill:#e0e0e0"></path><path d="M224.48,86a64.92,64.92,0,0,1-.26-8.15,64.92,64.92,0,0,1,.26-8.15,64.92,64.92,0,0,1,.26,8.15A64.92,64.92,0,0,1,224.48,86Z" style="fill:#e0e0e0"></path><path d="M230.19,86a62.72,62.72,0,0,1-.26-8.15,62.72,62.72,0,0,1,.26-8.15,64.92,64.92,0,0,1,.26,8.15A64.92,64.92,0,0,1,230.19,86Z" style="fill:#e0e0e0"></path><path d="M235.67,86a64.92,64.92,0,0,1-.26-8.15,64.92,64.92,0,0,1,.26-8.15,62.72,62.72,0,0,1,.26,8.15A62.72,62.72,0,0,1,235.67,86Z" style="fill:#e0e0e0"></path><polygon points="346.4 435.81 346.4 465.2 389.38 465.2 436.78 465.2 436.78 435.81 346.4 435.81" style="fill:#ebebeb"></polygon><polygon points="342.61 427.6 342.61 435.81 439.94 435.81 439.94 427.6 389.38 427.6 342.61 427.6" style="fill:#f5f5f5"></polygon><polygon points="391.28 465.2 436.78 465.2 436.78 435.81 439.94 435.81 439.94 427.6 389.38 427.6 389.38 435.05 391.28 465.2" style="fill:#e0e0e0"></polygon><rect x="359.04" y="440.55" width="18.33" height="4.42" style="fill:#e0e0e0"></rect><rect x="356.68" y="450.51" width="23.54" height="9.34" style="fill:#fafafa"></rect><polygon points="369.37 395.37 369.24 384.32 407.95 387.63 409.16 398.56 369.37 395.37" style="fill:#ebebeb"></polygon><rect x="388.73" y="379.2" width="1.99" height="24.3" transform="translate(-33.4 746.32) rotate(-85.11)" style="fill:#e0e0e0"></rect><polygon points="364.75 384.88 364.74 373.83 403.42 377.55 404.4 387.43 364.75 384.88" style="fill:#e0e0e0"></polygon><polygon points="364.74 375.33 364.72 382.79 402.41 385.56 401.78 378.69 364.74 375.33" style="fill:#fff"></polygon><path d="M399.55,381.55a6.51,6.51,0,0,1-1.37,0l-3.7-.29c-3.13-.27-7.45-.67-12.21-1.15s-9.07-.95-12.19-1.31l-3.69-.46a6.61,6.61,0,0,1-1.35-.24,7.51,7.51,0,0,1,1.37,0l3.7.29c3.13.27,7.44.68,12.21,1.16s9.08.94,12.19,1.31l3.69.45A6.61,6.61,0,0,1,399.55,381.55Z" style="fill:#e0e0e0"></path><path d="M399.47,382.48a6.39,6.39,0,0,1-1.38,0l-3.74-.18c-3.15-.17-7.51-.44-12.32-.78s-9.17-.66-12.32-.93l-3.73-.34a6.2,6.2,0,0,1-1.36-.2,7.06,7.06,0,0,1,1.38,0l3.74.17c3.16.17,7.52.45,12.33.78s9.16.67,12.31.94l3.73.34A7.77,7.77,0,0,1,399.47,382.48Z" style="fill:#e0e0e0"></path><polygon points="369.81 405.55 369.67 394.5 408.39 397.78 409.49 407.65 369.81 405.55" style="fill:#e0e0e0"></polygon><path d="M374.08,405.78a28.64,28.64,0,0,1-.47-5.44,27.82,27.82,0,0,1,.05-5.46,29.4,29.4,0,0,1,.47,5.44A28.74,28.74,0,0,1,374.08,405.78Z" style="fill:#f5f5f5"></path><path d="M375.54,395a29.45,29.45,0,0,1,.38,5.43,28.07,28.07,0,0,1-.15,5.44,29.45,29.45,0,0,1-.38-5.43A28.07,28.07,0,0,1,375.54,395Z" style="fill:#f5f5f5"></path><path d="M379.06,399.86c6.75.75,14.68,1.18,21.54,1.79" style="fill:#fff"></path><path d="M400.6,401.65a21.85,21.85,0,0,1-3.17-.08c-1.95-.11-4.64-.28-7.62-.5s-5.67-.47-7.62-.7a17,17,0,0,1-3.13-.51,21.33,21.33,0,0,1,3.17.14l7.62.55c3,.22,5.67.45,7.61.65A17.68,17.68,0,0,1,400.6,401.65Z" style="fill:#f5f5f5"></path><path d="M403.43,407.33a24.07,24.07,0,0,1-.5-4.94,23.34,23.34,0,0,1,0-4.95,23.79,23.79,0,0,1,.5,4.93A23.5,23.5,0,0,1,403.43,407.33Z" style="fill:#f5f5f5"></path><path d="M405.82,407.45a23.27,23.27,0,0,1-.75-4.93,24.2,24.2,0,0,1-.23-5,24,24,0,0,1,.75,4.92A24.3,24.3,0,0,1,405.82,407.45Z" style="fill:#f5f5f5"></path><path d="M384.81,402.34c4.26.29,7.51.5,10.91.58" style="fill:#fff"></path><path d="M395.72,402.92a29.23,29.23,0,0,1-5.47,0,28.92,28.92,0,0,1-5.44-.55,28.27,28.27,0,0,1,5.47,0A29.35,29.35,0,0,1,395.72,402.92Z" style="fill:#f5f5f5"></path><polygon points="372.41 427.13 371.68 416.1 410.52 417.33 412.14 427.12 372.41 427.13" style="fill:#e0e0e0"></polygon><polygon points="373.95 425.74 411.74 425.2 410.69 418.34 373.24 417.65 373.95 425.74" style="fill:#fafafa"></polygon><polygon points="373.47 416.32 373.11 405.28 411.88 407.81 413.17 417.64 373.47 416.32" style="fill:#ebebeb"></polygon><rect x="392.75" y="399.74" width="1.99" height="24.3" transform="translate(-42.82 778.08) rotate(-86.28)" style="fill:#e0e0e0"></rect><path d="M411.08,421.16a7.12,7.12,0,0,1-1.49.11l-4,.1c-3.42.06-8.13.11-13.34.13s-9.92,0-13.34,0l-4-.06a7.72,7.72,0,0,1-1.49-.1,8.06,8.06,0,0,1,1.48-.11l4.05-.1c3.41-.06,8.13-.1,13.34-.12s9.93,0,13.34,0l4,.07A8.43,8.43,0,0,1,411.08,421.16Z" style="fill:#e0e0e0"></path><path d="M411.52,423.3a7.42,7.42,0,0,1-1.5.09l-4.07,0c-3.44,0-8.19,0-13.43-.11s-10-.16-13.43-.26L375,422.9a7.46,7.46,0,0,1-1.49-.12,8,8,0,0,1,1.49-.08l4.07,0c3.44,0,8.19,0,13.44.11s10,.17,13.43.26l4.07.14A10,10,0,0,1,411.52,423.3Z" style="fill:#e0e0e0"></path><path d="M84.51,353.43c-4.86.78-7,6.75-6.6,11.66s2.44,9.69,1.9,14.58c-.69,6.22-5.38,11.47-5.93,17.69-.64,7.34,4.55,13.86,6.1,21.06.75,3.51.65,7.22,2,10.56a13.2,13.2,0,0,0,25.48-4.55c.11-5.64-3.37-10.95-3-16.58.32-4.15,2.75-8.09,2.23-12.22-.62-4.92-5.18-8.42-6.79-13.11s-.06-9.86-.62-14.79c-1-8.84-5.9-15-14.77-14.3" style="fill:#f5f5f5"></path><path d="M59.7,396.25c-.83,8.19,2.8,17.83,7,24.91a39.12,39.12,0,0,0,18.34,15.92c.86.36,1.93.66,2.65.07a2.66,2.66,0,0,0,.67-2.1,40.23,40.23,0,0,0-28.67-38.8" style="fill:#ebebeb"></path><path d="M95.39,454.21a2.47,2.47,0,0,1-.23-.46c-.15-.35-.35-.79-.58-1.34-.5-1.17-1.23-2.85-2.17-4.92a172,172,0,0,0-8.14-15.75,174.06,174.06,0,0,0-9.73-14.82c-1.34-1.83-2.44-3.3-3.22-4.3l-.88-1.17a2.41,2.41,0,0,1-.29-.43,2.22,2.22,0,0,1,.36.37l.95,1.11c.82,1,2,2.41,3.35,4.22a149.73,149.73,0,0,1,9.87,14.79,149.27,149.27,0,0,1,8,15.85c.9,2.08,1.59,3.79,2,5,.21.56.37,1,.51,1.38A1.66,1.66,0,0,1,95.39,454.21Z" style="fill:#e0e0e0"></path><path d="M90.12,376.1s0,.27.09.79.09,1.3.16,2.25c.13,2,.31,4.83.53,8.3.45,7,1.07,16.7,1.82,27.39s1.5,20.37,2,27.38c.26,3.47.48,6.29.63,8.29.07.95.12,1.7.16,2.26a4.3,4.3,0,0,1,0,.79,4.19,4.19,0,0,1-.12-.78l-.24-2.25c-.19-2-.45-4.82-.78-8.29-.63-7-1.42-16.67-2.17-27.37s-1.33-20.38-1.68-27.4c-.17-3.47-.3-6.3-.39-8.31,0-.95-.06-1.7-.08-2.26A4.32,4.32,0,0,1,90.12,376.1Z" style="fill:#e0e0e0"></path><path d="M82.58,442.53H103.1v15.06a9.85,9.85,0,0,1-9.85,9.85h0a9.85,9.85,0,0,1-9.84-9.32Z" style="fill:#e0e0e0"></path><polygon points="380.87 85.59 375.45 135.87 444.88 135.87 450.64 85.59 380.87 85.59" style="fill:#ebebeb"></polygon><polygon points="383.73 89.2 378.46 133.2 441.12 133.2 446.19 89.2 383.73 89.2" style="fill:#fafafa"></polygon><polygon points="394.27 96.6 391.03 125.8 430.57 125.8 432.6 96.6 394.27 96.6" style="fill:#e0e0e0"></polygon><polyline points="448.16 107.24 462.5 136.08 444.88 135.87 448.38 105.36" style="fill:#f5f5f5"></polyline><rect x="456.49" y="141.86" width="6.25" height="15.64" style="fill:#e0e0e0"></rect><rect x="365.02" y="141.86" width="6.25" height="15.64" style="fill:#e0e0e0"></rect><rect x="352.18" y="136.18" width="122" height="6.6" style="fill:#e0e0e0"></rect></g><g id="freepik--Plant--inject-12"><path d="M338.69,320.71c-17.25-12-21.17-34.42-20.48-54.53.11-3.35-.26-6.89,1.34-9.84s5.32-4.95,8.32-3.54c2.5,1.17,3.58,4.07,5,6.47a19.64,19.64,0,0,0,7.87,7.52c2.14,1.11,4.78,1.79,6.89.62,2.9-1.59,3.24-5.59,3.22-8.93l-.12-18.67c0-3.33,0-6.74,1-9.91s3.33-6.11,6.5-7,7.11.94,7.78,4.21a30.2,30.2,0,0,1,.09,4.15c.1,1.39.74,2.92,2.06,3.31s2.67-.56,3.66-1.53c3.45-3.37,5.79-7.72,8-12s4.31-8.74,7.43-12.42,7.45-6.59,12.23-6.86,9.88,2.68,11.09,7.37S409,218.59,406,222.39a74.54,74.54,0,0,1-15.52,14.79A6.17,6.17,0,0,0,387.9,240c-.73,2.23,1.38,4.44,3.58,5.17,2.49.83,5.19.57,7.79.88s5.42,1.45,6.41,3.91c1.36,3.41-1.49,7-4.3,9.33a63.84,63.84,0,0,1-18.89,10.91c-2.46.9-5,1.68-7,3.41s-3.18,4.72-2,7.08,4.27,3.1,6.84,2.62,4.88-1.87,7.33-2.79c4.58-1.73,10.51-1.42,13.45,2.55,1.93,2.6,2.1,6.23,1.12,9.34a24.55,24.55,0,0,1-5.06,8.25,64.18,64.18,0,0,1-27.41,19.26c-10.64,3.69-20.5,4.69-31.07.82" style="fill:#92E3A9"></path><path d="M405.7,204.53a3,3,0,0,1-.32.31l-1,.89c-.87.77-2.16,1.91-3.78,3.42a126,126,0,0,0-12.75,13.76c-2.49,3.1-5.07,6.6-7.77,10.41s-5.55,7.92-8.39,12.34a148.28,148.28,0,0,0-8.24,14.26c-1.29,2.55-2.43,5.22-3.61,7.95s-2.34,5.48-3.54,8.27a307.35,307.35,0,0,0-11.89,32.13,149,149,0,0,0-5.57,27.39,109.54,109.54,0,0,0-.31,18.85c.18,2.22.35,3.95.5,5.11.07.56.12,1,.16,1.33a2.61,2.61,0,0,1,0,.46,3.3,3.3,0,0,1-.1-.45c-.05-.33-.12-.76-.21-1.32-.2-1.16-.41-2.88-.62-5.11a104.78,104.78,0,0,1,.12-18.91,146.67,146.67,0,0,1,5.46-27.52,298.9,298.9,0,0,1,11.87-32.2l3.55-8.28c1.17-2.72,2.33-5.41,3.62-8a151.21,151.21,0,0,1,8.3-14.31c2.86-4.42,5.74-8.51,8.45-12.32s5.34-7.3,7.85-10.38A118.58,118.58,0,0,1,400.45,209c1.64-1.48,3-2.6,3.86-3.34l1-.84A2.54,2.54,0,0,1,405.7,204.53Z" style="fill:#263238"></path><path d="M363.1,259.62a6.51,6.51,0,0,1-.33-1.42c-.17-.92-.38-2.27-.62-3.93-.47-3.32-1-7.93-1.49-13s-1.09-9.68-1.61-13c-.25-1.65-.47-3-.64-3.91a7,7,0,0,1-.19-1.45,6,6,0,0,1,.42,1.4c.24.91.53,2.23.84,3.88.63,3.31,1.26,7.91,1.79,13s1,9.57,1.31,13c.17,1.56.31,2.88.43,3.94A6.68,6.68,0,0,1,363.1,259.62Z" style="fill:#263238"></path><path d="M406,251.6a9.1,9.1,0,0,1-1.72.21c-1.1.1-2.69.23-4.65.46-3.94.42-9.35,1.2-15.28,2.31S373.12,257,369.3,258c-1.92.49-3.46.93-4.53,1.23a8.49,8.49,0,0,1-1.67.41,10.29,10.29,0,0,1,1.6-.64c1.05-.37,2.57-.88,4.48-1.43,3.81-1.12,9.13-2.44,15.08-3.58a150.59,150.59,0,0,1,15.34-2.14c2-.17,3.58-.24,4.69-.26A9.78,9.78,0,0,1,406,251.6Z" style="fill:#263238"></path><path d="M344.4,307.31a2,2,0,0,1-.29-.52l-.73-1.55c-.64-1.35-1.5-3.33-2.53-5.79-2.07-4.92-4.72-11.8-7.54-19.43s-5.39-14.53-7.36-19.49c-1-2.4-1.76-4.38-2.34-5.86-.26-.64-.46-1.16-.63-1.59a2.06,2.06,0,0,1-.18-.58,2,2,0,0,1,.29.53c.2.41.44.93.73,1.55.64,1.35,1.5,3.33,2.53,5.79,2.07,4.91,4.72,11.79,7.54,19.43s5.39,14.53,7.36,19.48l2.34,5.86c.26.64.46,1.17.63,1.6A2.17,2.17,0,0,1,344.4,307.31Z" style="fill:#263238"></path><path d="M401.43,288.93a2.4,2.4,0,0,1-.56.24l-1.66.55-6.1,2c-5.16,1.67-12.26,4.07-20.09,6.72s-15,5-20.16,6.55c-2.6.78-4.7,1.39-6.17,1.79l-1.69.44c-.38.1-.59.14-.6.11a2.42,2.42,0,0,1,.57-.23l1.66-.55,6.1-2c5.16-1.67,12.25-4.07,20.09-6.72s15-5,20.16-6.55c2.59-.78,4.7-1.4,6.16-1.79l1.69-.44A2.29,2.29,0,0,1,401.43,288.93Z" style="fill:#263238"></path><path d="M352.43,316.57a9.91,9.91,0,0,0,8.6-5,13.12,13.12,0,0,0,1.05-10.11c-.44-1.55-1.24-3.16-2.72-3.8a4.23,4.23,0,0,0-4.22.79,8.62,8.62,0,0,0-2.44,3.73c-1.83,4.84-2.7,9.84-.27,14.4" style="fill:#455a64"></path><path d="M350.57,325.86a23.23,23.23,0,0,1,19.19,9c1.13,1.49,2.09,3.54,1.14,5.15s-3.23,1.77-5.07,1.45a19.77,19.77,0,0,1-15.71-15.36" style="fill:#455a64"></path><path d="M395.34,312.92a11.58,11.58,0,0,0-7.87-4.55,20.5,20.5,0,0,0-9.21,1.05c-5.74,1.85-11,6.39-15,10.94,5.32,4.07,13.08,3.68,17,3.24,6.2-.7,17-5.73,15-10.68" style="fill:#455a64"></path><path d="M337,326.39a25.17,25.17,0,0,0,2.9-.88,42.32,42.32,0,0,0,9.77-5.85,21.35,21.35,0,0,0,6.61-9.25A14.44,14.44,0,0,0,357,307a4.16,4.16,0,0,0,0-1.28,30.5,30.5,0,0,1-1.15,4.51,22.42,22.42,0,0,1-6.6,8.9,49.57,49.57,0,0,1-9.54,5.93" style="fill:#263238"></path><path d="M336.87,326.41l5.55-1.23c4.69-1.05,11.17-2.48,18.34-4s13.69-2.74,18.41-3.64l5.59-1.08a11.27,11.27,0,0,0,2-.48,14.08,14.08,0,0,0-2.08.22c-1.33.18-3.25.48-5.62.87-4.75.78-11.28,2-18.46,3.45s-13.66,3-18.32,4.16c-2.33.58-4.21,1.07-5.51,1.43" style="fill:#263238"></path><path d="M364,335.22a4,4,0,0,0-.67-1,9.15,9.15,0,0,0-.9-1.1,16.41,16.41,0,0,0-1.32-1.36,24.27,24.27,0,0,0-3.9-3,27.78,27.78,0,0,0-5.45-2.56,28.4,28.4,0,0,0-5.91-1.24,24.06,24.06,0,0,0-4.92.05,14.48,14.48,0,0,0-1.87.29,9.39,9.39,0,0,0-1.38.33c-.75.22-.9.5-.89.54a40.31,40.31,0,0,1,4.18-.69,27.51,27.51,0,0,1,4.82.1,27.59,27.59,0,0,1,11.1,3.71,26.89,26.89,0,0,1,3.9,2.83C362.87,333.91,363.91,335.3,364,335.22Z" style="fill:#263238"></path></g><g id="freepik--Device--inject-12"><path d="M318.26,381.39l-111.53-.52a24.29,24.29,0,0,1-24.18-24.4l1.18-279.59a24.3,24.3,0,0,1,24.41-24.19l111.52.52A24.29,24.29,0,0,1,343.84,77.6l-1.18,279.59A24.29,24.29,0,0,1,318.26,381.39Z" style="fill:#263238"></path><path d="M319.5,62.86l-21.62-.1a5.36,5.36,0,0,0-5.27,5.46l0,3.92a5.37,5.37,0,0,1-5.27,5.47l-42.15-.2a5.38,5.38,0,0,1-5.23-5.51L240,68a5.38,5.38,0,0,0-5.23-5.51l-7.6,0-18.93-.09a17,17,0,0,0-17.09,17L190,352.19a17,17,0,0,0,16.93,17.08l111.3.52a17,17,0,0,0,17.09-17l1.16-272.9A17,17,0,0,0,319.5,62.86Z" style="fill:#fafafa"></path><rect x="250.61" y="96.46" width="28.71" height="5.27" transform="matrix(1, 0, 0, 1, 0.46, -1.22)" style="fill:#455a64"></rect><path d="M217.18,139.63a3.2,3.2,0,0,1,.68.09,2.73,2.73,0,0,1,.63-.09Z" style="fill:#455a64"></path><path d="M225.05,125.17a8.31,8.31,0,0,0-1.9-1.89,8.91,8.91,0,0,0-10.58,0,8.36,8.36,0,0,0-1.91,1.89,8.15,8.15,0,0,0-1.22,2.26,9,9,0,0,0,1.24,8.52c.11.15.23.28.34.41a6.46,6.46,0,0,1,5.42-4.5,4.32,4.32,0,0,1-2.59-4,4.07,4.07,0,1,1,8.12,0,4.33,4.33,0,0,1-2.58,4,6.34,6.34,0,0,1,5.32,4.49l.33-.4a9,9,0,0,0,1.24-8.52A8.45,8.45,0,0,0,225.05,125.17Z" style="fill:#fafafa"></path><path d="M226.78,127.25a8.63,8.63,0,0,0-1.28-2.41,9,9,0,0,0-2-2,9.45,9.45,0,0,0-11.26,0,8.75,8.75,0,0,0-2,2,8.93,8.93,0,0,0-1.29,2.41,9.56,9.56,0,0,0-.38,5,9.38,9.38,0,0,0,1.8,4,9.2,9.2,0,0,0,5.23,3.35,7.27,7.27,0,0,0,1.69.2,2.23,2.23,0,0,0,.59,0,3.2,3.2,0,0,0-.68-.09h1.31a2.73,2.73,0,0,0-.63.09,2.23,2.23,0,0,0,.59,0,7.27,7.27,0,0,0,1.69-.2,9.18,9.18,0,0,0,5.22-3.35,9.27,9.27,0,0,0,1.81-4A9.47,9.47,0,0,0,226.78,127.25Zm-.09,4.9A9,9,0,0,1,225,136l-.33.4a6.34,6.34,0,0,0-5.32-4.49,4.33,4.33,0,0,0,2.58-4,4.07,4.07,0,1,0-8.12,0,4.32,4.32,0,0,0,2.59,4,6.46,6.46,0,0,0-5.42,4.5c-.11-.13-.23-.26-.34-.41a9,9,0,0,1-1.24-8.52,8.15,8.15,0,0,1,1.22-2.26,8.36,8.36,0,0,1,1.91-1.89,8.91,8.91,0,0,1,10.58,0,8.31,8.31,0,0,1,1.9,1.89,8.45,8.45,0,0,1,1.23,2.26A9,9,0,0,1,226.69,132.15Z" style="fill:#455a64"></path><path d="M325.9,148.05s.29,0,.83-.11a4.35,4.35,0,0,0,2.13-1.12,4.45,4.45,0,0,0,1.34-3.57c0-1.59,0-3.42,0-5.47,0-4.12,0-9.15-.05-15,0-1.46,0-3,0-4.54a4.24,4.24,0,0,0-2.09-3.88c-1.38-.87-3.18-.49-4.91-.57h-5.38l-115,.08a4.14,4.14,0,0,0-3.35,1.73,4,4,0,0,0-.71,1.8,19.36,19.36,0,0,0-.05,2v24.39a4.11,4.11,0,0,0,1.7,3.14,4,4,0,0,0,1.67.71,11.81,11.81,0,0,0,1.9.07h22.66l51.69.06,34.84.09,9.48.05,2.46,0c.56,0,.84,0,.84,0l-.84,0-2.46,0-9.48.06-34.84.09-51.69.06H203.93a13.57,13.57,0,0,1-2-.08,4.67,4.67,0,0,1-3.84-4.38q0-7.95,0-16.16v-8.26c0-.7,0-1.37,0-2.12a4.63,4.63,0,0,1,.81-2,4.7,4.7,0,0,1,3.83-2l115,.08h8a4.54,4.54,0,0,1,2.5.64,4.6,4.6,0,0,1,2.25,4.2c0,1.56,0,3.08,0,4.54,0,5.84,0,10.87-.05,15,0,2.05,0,3.88,0,5.47a4.6,4.6,0,0,1-1.44,3.66,4.36,4.36,0,0,1-2.2,1.09A3.14,3.14,0,0,1,325.9,148.05Z" style="fill:#455a64"></path><rect x="235.68" y="122.56" width="32.48" height="2.44" style="fill:#455a64"></rect><rect x="235.68" y="136.32" width="56.9" height="2.44" style="fill:#455a64"></rect><rect x="235.68" y="129.27" width="82.46" height="2.44" style="fill:#455a64"></rect><path d="M217.18,225.79c.44.06.68.06.68.1a2.73,2.73,0,0,1,.63-.09Z" style="fill:#455a64"></path><path d="M225.05,211.34a8.12,8.12,0,0,0-1.9-1.89,8.91,8.91,0,0,0-10.58,0,8.92,8.92,0,0,0-3.13,4.15,9,9,0,0,0,1.24,8.52l.34.41a6.43,6.43,0,0,1,5.42-4.5,4.32,4.32,0,0,1-2.59-4,4.07,4.07,0,1,1,8.12,0,4.34,4.34,0,0,1-2.58,4,6.33,6.33,0,0,1,5.32,4.48l.33-.39a9,9,0,0,0,1.24-8.52A8.45,8.45,0,0,0,225.05,211.34Z" style="fill:#fafafa"></path><path d="M226.78,213.42A8.49,8.49,0,0,0,225.5,211a9,9,0,0,0-2-2,9.45,9.45,0,0,0-11.26,0,9.61,9.61,0,0,0-3.3,4.43,9.53,9.53,0,0,0-.38,5,9.37,9.37,0,0,0,1.8,4,9.23,9.23,0,0,0,5.23,3.34,6.87,6.87,0,0,0,1.69.21,2.23,2.23,0,0,0,.59,0s-.24,0-.68-.1h1.31a2.73,2.73,0,0,0-.63.09,2.23,2.23,0,0,0,.59,0,6.87,6.87,0,0,0,1.69-.21,9.21,9.21,0,0,0,5.22-3.34,9.32,9.32,0,0,0,1.81-4A9.43,9.43,0,0,0,226.78,213.42Zm-.09,4.9a9,9,0,0,1-1.65,3.8l-.33.39a6.33,6.33,0,0,0-5.32-4.48,4.34,4.34,0,0,0,2.58-4,4.07,4.07,0,1,0-8.12,0,4.32,4.32,0,0,0,2.59,4,6.43,6.43,0,0,0-5.42,4.5l-.34-.41a9,9,0,0,1-1.24-8.52,8.92,8.92,0,0,1,3.13-4.15,8.91,8.91,0,0,1,10.58,0,8.12,8.12,0,0,1,1.9,1.89,8.45,8.45,0,0,1,1.23,2.26A9,9,0,0,1,226.69,218.32Z" style="fill:#455a64"></path><path d="M325.9,234.22s.29,0,.83-.11a4.35,4.35,0,0,0,2.13-1.12,4.45,4.45,0,0,0,1.34-3.58c0-1.58,0-3.41,0-5.47,0-4.11,0-9.15-.05-15,0-1.46,0-3,0-4.53a4.26,4.26,0,0,0-2.09-3.89c-1.38-.87-3.18-.49-4.91-.57h-5.38l-115,.09a4.11,4.11,0,0,0-3.35,1.73,3.93,3.93,0,0,0-.71,1.79,19.5,19.5,0,0,0-.05,2V230a4.13,4.13,0,0,0,1.7,3.14,4,4,0,0,0,1.67.71,13.09,13.09,0,0,0,1.9.07h22.66l51.69.06,34.84.1,9.48,0,2.46,0c.56,0,.84,0,.84,0s-.28,0-.84,0l-2.46,0-9.48.05-34.84.1-51.69.06H203.93a13.52,13.52,0,0,1-2-.07A4.67,4.67,0,0,1,198.1,230q0-7.95,0-16.16v-8.26c0-.7,0-1.36,0-2.12a4.63,4.63,0,0,1,.81-2.05,4.72,4.72,0,0,1,3.83-2l115,.08h8a4.58,4.58,0,0,1,4.75,4.84c0,1.56,0,3.07,0,4.53,0,5.84,0,10.88-.05,15,0,2.06,0,3.89,0,5.47a4.59,4.59,0,0,1-1.44,3.66,4.39,4.39,0,0,1-2.2,1.1A3.14,3.14,0,0,1,325.9,234.22Z" style="fill:#455a64"></path><rect x="235.68" y="208.72" width="32.48" height="2.44" style="fill:#455a64"></rect><rect x="235.68" y="222.49" width="56.9" height="2.44" style="fill:#455a64"></rect><rect x="235.68" y="215.44" width="82.46" height="2.44" style="fill:#455a64"></rect><rect x="247.4" y="107.05" width="34.45" height="131.92" rx="3.93" transform="translate(90.86 437.13) rotate(-89.84)" style="fill:#92E3A9"></rect><rect x="235.99" y="164.7" width="32.48" height="2.44" transform="translate(0.48 -0.72) rotate(0.16)" style="fill:#fafafa"></rect><rect x="235.95" y="178.5" width="56.9" height="2.44" transform="translate(0.52 -0.76) rotate(0.16)" style="fill:#fafafa"></rect><rect x="235.97" y="171.49" width="82.46" height="2.44" transform="translate(0.5 -0.79) rotate(0.16)" style="fill:#fafafa"></rect><path d="M219.71,173.88a4.35,4.35,0,0,0,2.5-4.06,4.07,4.07,0,1,0-8.12.13,4.32,4.32,0,0,0,2.67,4,6.51,6.51,0,0,0-5.4,4.84,9.27,9.27,0,0,0,5.7,2.92l2.5,0a9.18,9.18,0,0,0,5.66-3.18A6.4,6.4,0,0,0,219.71,173.88Z" style="fill:#fafafa"></path><path d="M218.35,181.77c0-.07.82,0,2.22-.44a9.07,9.07,0,0,0,6-12,8.33,8.33,0,0,0-1.27-2.24,8.62,8.62,0,0,0-1.95-1.86,9,9,0,0,0-10.62.23,8.6,8.6,0,0,0-1.87,1.94,8.45,8.45,0,0,0-1.18,2.29,9.12,9.12,0,0,0,6.47,11.78c1.42.34,2.25.27,2.24.34a7.07,7.07,0,0,1-2.28-.14,9.22,9.22,0,0,1-5.28-3.23,9.37,9.37,0,0,1-1.88-3.92,9.47,9.47,0,0,1,.28-5,9.57,9.57,0,0,1,3.19-4.49,9.43,9.43,0,0,1,11.22-.24,8.94,8.94,0,0,1,2.05,2,8.76,8.76,0,0,1,1.33,2.38,9.41,9.41,0,0,1,.49,5,9.33,9.33,0,0,1-6.84,7.45A6.9,6.9,0,0,1,218.35,181.77Z" style="fill:#fafafa"></path><path d="M256.51,343.66a2.32,2.32,0,0,1-4.59,0,2.32,2.32,0,0,1,4.59,0Z" style="fill:#455a64"></path><path d="M263.63,343.69a2.32,2.32,0,1,1-2.29-2A2.15,2.15,0,0,1,263.63,343.69Z" style="fill:#455a64"></path><path d="M270.74,343.72a2.32,2.32,0,1,1-2.28-2A2.15,2.15,0,0,1,270.74,343.72Z" style="fill:#455a64"></path><path d="M217.18,270.48c.44.06.68.06.68.1s.22,0,.63-.09Z" style="fill:#455a64"></path><path d="M225.05,256a8.27,8.27,0,0,0-1.9-1.88,8.91,8.91,0,0,0-10.58,0,8.32,8.32,0,0,0-1.91,1.88,8.2,8.2,0,0,0-1.22,2.27,9,9,0,0,0,1.24,8.52c.11.14.23.27.34.4a6.44,6.44,0,0,1,5.42-4.49,4.32,4.32,0,0,1-2.59-4.05,4.07,4.07,0,1,1,8.12,0,4.34,4.34,0,0,1-2.58,4,6.33,6.33,0,0,1,5.32,4.48l.33-.39a9.05,9.05,0,0,0,1.24-8.52A8.51,8.51,0,0,0,225.05,256Z" style="fill:#fafafa"></path><path d="M226.78,258.11a8.68,8.68,0,0,0-1.28-2.42,9.12,9.12,0,0,0-2-2,9.45,9.45,0,0,0-11.26,0,9.48,9.48,0,0,0-3.3,4.43,9.53,9.53,0,0,0-.38,5,9.43,9.43,0,0,0,1.8,4,9.23,9.23,0,0,0,5.23,3.34,8,8,0,0,0,1.69.21,2.23,2.23,0,0,0,.59,0s-.24,0-.68-.1h1.31c-.41.05-.63.05-.63.09a2.23,2.23,0,0,0,.59,0,8,8,0,0,0,1.69-.21,9.21,9.21,0,0,0,5.22-3.34,9.32,9.32,0,0,0,1.81-4A9.43,9.43,0,0,0,226.78,258.11Zm-.09,4.89a8.94,8.94,0,0,1-1.65,3.81l-.33.39a6.33,6.33,0,0,0-5.32-4.48,4.34,4.34,0,0,0,2.58-4,4.07,4.07,0,1,0-8.12,0,4.32,4.32,0,0,0,2.59,4.05,6.44,6.44,0,0,0-5.42,4.49c-.11-.13-.23-.26-.34-.4a9,9,0,0,1-1.24-8.52,8.2,8.2,0,0,1,1.22-2.27,8.32,8.32,0,0,1,1.91-1.88,8.91,8.91,0,0,1,10.58,0,8.27,8.27,0,0,1,1.9,1.88,8.51,8.51,0,0,1,1.23,2.27A9,9,0,0,1,226.69,263Z" style="fill:#455a64"></path><path d="M325.9,278.91s.29,0,.83-.11a4.35,4.35,0,0,0,2.13-1.12,4.45,4.45,0,0,0,1.34-3.58c0-1.59,0-3.41,0-5.47,0-4.12,0-9.15-.05-15,0-1.46,0-3,0-4.53a4.26,4.26,0,0,0-2.09-3.89c-1.38-.87-3.18-.49-4.91-.57h-5.38l-115,.09a4.08,4.08,0,0,0-3.35,1.73,3.89,3.89,0,0,0-.71,1.79,19.5,19.5,0,0,0-.05,2V274.7a4.13,4.13,0,0,0,1.7,3.15,4,4,0,0,0,1.67.71,14.68,14.68,0,0,0,1.9.07h22.66l51.69.06,34.84.1,9.48.05,2.46,0c.56,0,.84,0,.84,0l-.84,0-2.46,0-9.48,0-34.84.09-51.69.07H203.93a12.31,12.31,0,0,1-2-.08,4.43,4.43,0,0,1-1.91-.8,4.64,4.64,0,0,1-1.93-3.58q0-8,0-16.16v-8.26c0-.7,0-1.36,0-2.12a4.63,4.63,0,0,1,.81-2.05,4.76,4.76,0,0,1,3.83-2l115,.09h8a4.71,4.71,0,0,1,2.5.64,4.62,4.62,0,0,1,2.25,4.21c0,1.56,0,3.07,0,4.53,0,5.84,0,10.87-.05,15,0,2.06,0,3.88,0,5.47a4.59,4.59,0,0,1-1.44,3.66,4.39,4.39,0,0,1-2.2,1.1A3.14,3.14,0,0,1,325.9,278.91Z" style="fill:#455a64"></path><rect x="235.68" y="253.41" width="32.48" height="2.44" style="fill:#455a64"></rect><rect x="235.68" y="267.18" width="56.9" height="2.44" style="fill:#455a64"></rect><rect x="235.68" y="260.13" width="82.46" height="2.44" style="fill:#455a64"></rect><path d="M217.18,314.28c.44.05.68.06.68.1s.22-.05.63-.09Z" style="fill:#455a64"></path><path d="M225.05,299.82a8.52,8.52,0,0,0-1.9-1.89,9,9,0,0,0-10.58,0,8.57,8.57,0,0,0-1.91,1.89,8.2,8.2,0,0,0-1.22,2.27,9,9,0,0,0,1.24,8.52c.11.14.23.27.34.4a6.44,6.44,0,0,1,5.42-4.49,4.33,4.33,0,0,1-2.59-4,4.07,4.07,0,1,1,8.12,0,4.34,4.34,0,0,1-2.58,4,6.32,6.32,0,0,1,5.32,4.48c.11-.13.22-.25.33-.4a8.84,8.84,0,0,0,1.65-3.8,9,9,0,0,0-.41-4.71A8.51,8.51,0,0,0,225.05,299.82Z" style="fill:#fafafa"></path><path d="M226.78,301.9a8.63,8.63,0,0,0-1.28-2.41,9,9,0,0,0-2-2,9.49,9.49,0,0,0-11.26,0,8.75,8.75,0,0,0-2,2,8.93,8.93,0,0,0-1.29,2.41,9.56,9.56,0,0,0-.38,5,9.33,9.33,0,0,0,1.8,4,9.2,9.2,0,0,0,5.23,3.35,8,8,0,0,0,1.69.21,2.23,2.23,0,0,0,.59,0s-.24-.05-.68-.1h1.31c-.41,0-.63,0-.63.09a2.23,2.23,0,0,0,.59,0,8,8,0,0,0,1.69-.21,9.37,9.37,0,0,0,7-7.31A9.47,9.47,0,0,0,226.78,301.9Zm-.09,4.9a8.84,8.84,0,0,1-1.65,3.8c-.11.15-.22.27-.33.4a6.32,6.32,0,0,0-5.32-4.48,4.34,4.34,0,0,0,2.58-4,4.07,4.07,0,1,0-8.12,0,4.33,4.33,0,0,0,2.59,4A6.44,6.44,0,0,0,211,311c-.11-.13-.23-.26-.34-.4a9,9,0,0,1-1.24-8.52,8.2,8.2,0,0,1,1.22-2.27,8.57,8.57,0,0,1,1.91-1.89,9,9,0,0,1,10.58,0,9.06,9.06,0,0,1,3.13,4.16A9,9,0,0,1,226.69,306.8Z" style="fill:#455a64"></path><path d="M325.9,322.71s.29,0,.83-.11a4.41,4.41,0,0,0,3.47-4.7c0-1.59,0-3.41,0-5.47,0-4.12,0-9.15-.05-15,0-1.46,0-3,0-4.53A4.25,4.25,0,0,0,328,289c-1.38-.87-3.18-.49-4.91-.57h-5.38l-115,.08a4.12,4.12,0,0,0-3.35,1.74,3.89,3.89,0,0,0-.71,1.79,19.43,19.43,0,0,0-.05,2V318.5a4.11,4.11,0,0,0,1.7,3.14,4,4,0,0,0,1.67.72,13.12,13.12,0,0,0,1.9.06h22.66l51.69.06,34.84.09,9.48.06,2.46,0,.84,0s-.28,0-.84,0l-2.46,0-9.48.06-34.84.09-51.69.06H203.93a13.57,13.57,0,0,1-2-.08,4.45,4.45,0,0,1-1.91-.81,4.62,4.62,0,0,1-1.93-3.57q0-7.95,0-16.16v-8.26c0-.7,0-1.36,0-2.12a4.63,4.63,0,0,1,.81-2.05,4.73,4.73,0,0,1,3.83-2l115,.09h8a4.71,4.71,0,0,1,2.5.64,4.61,4.61,0,0,1,2.25,4.21c0,1.56,0,3.07,0,4.53,0,5.84,0,10.87-.05,15,0,2.06,0,3.88,0,5.47a4.6,4.6,0,0,1-1.44,3.66,4.28,4.28,0,0,1-2.2,1.09A3,3,0,0,1,325.9,322.71Z" style="fill:#455a64"></path><rect x="235.68" y="297.21" width="32.48" height="2.44" style="fill:#455a64"></rect><rect x="235.68" y="310.97" width="56.9" height="2.44" style="fill:#455a64"></rect><rect x="235.68" y="303.92" width="82.46" height="2.44" style="fill:#455a64"></rect><circle cx="326.29" cy="158.44" r="6.66" style="fill:#263238"></circle><polyline points="323.02 157.9 325.82 160.36 329.55 156.52" style="fill:none;stroke:#fafafa;stroke-linecap:round;stroke-linejoin:round"></polyline></g><g id="freepik--Character--inject-12"><polygon points="141.72 454.97 140.09 464.44 154.69 465.51 154.74 456.2 141.72 454.97" style="fill:#92E3A9"></polygon><path d="M148.3,455.1a42.49,42.49,0,0,1-1,8.6,22,22,0,0,1,.26-4.33A21.76,21.76,0,0,1,148.3,455.1Z" style="fill:#263238"></path><path d="M154.69,464.48a11.56,11.56,0,0,1-2.11-.16l-5.07-.56c-2-.23-3.78-.47-5.07-.69a10.19,10.19,0,0,1-2.07-.46,10,10,0,0,1,2.11.15l5.08.57c2,.22,3.77.47,5.06.69A10.19,10.19,0,0,1,154.69,464.48Z" style="fill:#263238"></path><path d="M194.42,460.14l0-8.5-15.9-.15-.17,12.43,1,.07c4.39.28,22.33,1.14,25.27.28C207.91,463.31,194.42,460.14,194.42,460.14Z" style="fill:#92E3A9"></path><g style="opacity:0.38"><path d="M184.14,463.85a5.53,5.53,0,0,0-2-3.41,5.39,5.39,0,0,0-3.71-1.2l0,4.45Z"></path></g><g style="opacity:0.38"><path d="M201,461.92s4.72,1.41,4.12,2.19-18.76.59-26.76-.19l0-.36,21.18.39S200.08,462,201,461.92Z"></path></g><path d="M178.15,463.55l.27,0,.78.06,2.89.15c2.45.11,5.82.22,9.55.26s7.1,0,9.55-.05l2.89-.09.79,0a.94.94,0,0,0,.27,0h-1.06l-2.89,0c-2.45,0-5.82,0-9.55,0s-7.1-.13-9.54-.21l-2.89-.09-.79,0Z" style="fill:#263238"></path><path d="M199.57,464.2a6.39,6.39,0,0,1,.56-1.37,7.17,7.17,0,0,1,1-1.1,2.18,2.18,0,0,0-1.16,1A2.15,2.15,0,0,0,199.57,464.2Z" style="fill:#263238"></path><path d="M194.9,461.77s.27-.24.51-.6a1.7,1.7,0,0,0,.35-.71s-.28.24-.51.6S194.86,461.74,194.9,461.77Z" style="fill:#263238"></path><path d="M193.62,461.08s.29-.13.57-.37.47-.47.43-.51-.28.12-.56.37S193.59,461,193.62,461.08Z" style="fill:#263238"></path><path d="M192.82,459.57a3.88,3.88,0,0,0,1.66,0c0-.06-.37-.11-.82-.12A2,2,0,0,0,192.82,459.57Z" style="fill:#263238"></path><path d="M192.55,458.51a1.7,1.7,0,0,0,.93.28,1.64,1.64,0,0,0,1-.12,4.22,4.22,0,0,0-.94-.07A4.76,4.76,0,0,0,192.55,458.51Z" style="fill:#263238"></path><path d="M195.46,460.39a3.16,3.16,0,0,0,1,0,6.91,6.91,0,0,0,1.09-.23,2.88,2.88,0,0,0,.62-.25.53.53,0,0,0,.26-.32.42.42,0,0,0-.15-.41,1.85,1.85,0,0,0-2.32.53,1.62,1.62,0,0,0-.34.67c0,.18,0,.28,0,.28a2.69,2.69,0,0,1,.47-.87,1.86,1.86,0,0,1,.88-.56,1.62,1.62,0,0,1,1.22.1c.16.12.09.31-.09.42a4,4,0,0,1-.57.24,6.75,6.75,0,0,1-1.06.26C195.85,460.36,195.46,460.36,195.46,460.39Z" style="fill:#263238"></path><path d="M195.72,460.44s.17-.24.13-.7a1.74,1.74,0,0,0-.28-.75,1,1,0,0,0-.84-.53.4.4,0,0,0-.32.47,1.06,1.06,0,0,0,.17.45,3.44,3.44,0,0,0,.47.63,1.59,1.59,0,0,0,.58.42s-.2-.19-.48-.51a5.09,5.09,0,0,1-.42-.62c-.14-.22-.23-.61,0-.65s.51.23.67.44a1.66,1.66,0,0,1,.28.67A3.62,3.62,0,0,1,195.72,460.44Z" style="fill:#263238"></path><path d="M178.52,459.2s.45,0,1.17.05a5.11,5.11,0,0,1,2.55,1.09,5.06,5.06,0,0,1,1.58,2.28,11.18,11.18,0,0,1,.29,1.13,1,1,0,0,0,0-.32,4.39,4.39,0,0,0-.17-.86,4.91,4.91,0,0,0-1.59-2.38,4.83,4.83,0,0,0-2.66-1.07,4,4,0,0,0-.87,0A.86.86,0,0,0,178.52,459.2Z" style="fill:#263238"></path><path d="M180.23,452.6a28.44,28.44,0,0,0-.17,3.26,29.22,29.22,0,0,0,0,3.27,28.44,28.44,0,0,0,.17-3.26A29.22,29.22,0,0,0,180.23,452.6Z" style="fill:#263238"></path><path d="M186.15,462.32a9,9,0,0,0,2.32.25,8.9,8.9,0,0,0,2.33-.16c0-.06-1,0-2.32,0S186.16,462.26,186.15,462.32Z" style="fill:#263238"></path><path d="M183,462.28s.08.22.18.46.16.45.22.45.08-.25,0-.53S183.07,462.24,183,462.28Z" style="fill:#263238"></path><path d="M181.88,460.81s.06.2.22.37.33.27.37.24-.07-.21-.23-.38S181.91,460.77,181.88,460.81Z" style="fill:#263238"></path><path d="M180.2,460.12c0,.05.22.05.46.14s.4.21.44.17-.09-.25-.38-.35S180.19,460.07,180.2,460.12Z" style="fill:#263238"></path><path d="M179,459.79s.07.14.2.19.25,0,.27,0-.07-.13-.2-.18S179,459.74,179,459.79Z" style="fill:#263238"></path><path d="M170.3,202.06c.12-2.49.39-5.31.39-5.31s6.16-.67,6.53-7,0-21,0-21L166,163l-12.35,9.74,1.87,31.83,11.36.72A3.28,3.28,0,0,0,170.3,202.06Z" style="fill:#ffbe9d"></path><path d="M171.41,184.68s0,.11-.1.27a.85.85,0,0,1-.7.31c-.72,0-1.41-.82-1.66-1.79a2.94,2.94,0,0,1,0-1.41,1.2,1.2,0,0,1,.67-1,.59.59,0,0,1,.47,0,.48.48,0,0,1,.25.26c.09.18,0,.3,0,.29s0-.11-.12-.22a.4.4,0,0,0-.53-.12,1,1,0,0,0-.45.8,2.85,2.85,0,0,0,.05,1.26c.22.87.82,1.57,1.35,1.64a.79.79,0,0,0,.6-.17C171.35,184.76,171.39,184.67,171.41,184.68Z" style="fill:#eb996e"></path><path d="M171.37,188.61c.08-.23.13-.48.2-.72s.09-.34.15-.52h0a8.41,8.41,0,0,0,.17-1.59,3,3,0,0,1-3.23-.7,3.37,3.37,0,0,1-.76-3.34,4.85,4.85,0,0,1,2.88-2.71c1.24-.52,2.57-.78,3.79-1.36,2.58-1.22,4.36-3.77,5.58-6.44.85-1.87,1.49-4,.91-6-.86-2.93-4-4.38-6.81-5.19-4.32-1.22-9-1.76-13.22-.21s-9.29,4.29-9.29,8.95c-2.49-.21-3.91,2-4.9,4.68a37,37,0,0,0-1.1,5.12" style="fill:#263238"></path><path d="M155.14,198a21.88,21.88,0,0,1-9.41-19.42c.64-13.36,25.64,10,25.64,10s-4.79,15.74-15.72,9.39" style="fill:#263238"></path><path d="M151.43,184.68c-.07-.06.43-.53.84-1.5a4.83,4.83,0,0,0-2.87-6.58c-1-.36-1.68-.31-1.68-.4a2.79,2.79,0,0,1,1.79.05,5.11,5.11,0,0,1,3.26,2.79,5,5,0,0,1-.17,4.29C152.07,184.34,151.46,184.72,151.43,184.68Z" style="fill:#92E3A9"></path><path d="M146.28,176.5a1,1,0,0,1-.65-.14,3,3,0,0,1-1.32-1.27,4.48,4.48,0,0,1-.43-2.67,8.16,8.16,0,0,1,1-3.14,5.05,5.05,0,0,1,2.48-2.2,3.6,3.6,0,0,1,2.72,0,3.05,3.05,0,0,1,1.4,1.18c.21.38.24.63.21.63a3.55,3.55,0,0,0-1.75-1.46,3.25,3.25,0,0,0-2.4.11,4.7,4.7,0,0,0-2.21,2c-1.07,1.91-1.37,4.1-.72,5.37A3.44,3.44,0,0,0,146.28,176.5Z" style="fill:#263238"></path><path d="M259.83,181c-.45-.46-1.55-.24-1.55-.24a6,6,0,0,0,0-1.94c-.2-.63-1.61-.51-1.61-.51a6.32,6.32,0,0,1,0-1.59.58.58,0,0,0-.33-.56,5.23,5.23,0,0,0-2.1-.38c-.87-.62,2.62-5.5,3.92-7.06s1.06-2.77-.09-2.77c-.79,0-4.86,4.69-6.11,6.26s-4.57,5.95-4.68,2.46-1.52-6.14-2.4-6.59-1.82.61-1.33,1.58a12.76,12.76,0,0,1,.78,3.43,8.67,8.67,0,0,1-.13,2.83,32.39,32.39,0,0,1-1.5,5l-.09-.05s-24.37,23.37-26.13,25c-1.58,1.5-33.25-1.78-39.59-2.45a44.24,44.24,0,0,0-6.53-.44c-2.75.12-3.24.51-6,.54a122.44,122.44,0,0,0-19.56,1.64c-6.33,1.07-9.81,6-11.76,12.13-6.41,20-23.73,67-26.32,93.6a114.56,114.56,0,0,0-5.23,10.8c-1.79,4.89-1.35,5.06-.75,5.17,1.62.3,3.48-8.47,4.18-6.36s-3.52,10.47-1.81,10.71c2.22.32,4-8.9,4.21-9.67s1.33-.49,1.1.19c-.32,1-3.46,11.4-1.28,11.74,1.21.18,1.34-2,1.34-2s2.22-10,3.25-9.77-.06,6.09-.58,8.05.21,3,1.25,2.48c.72-.33,2.43-6.3,2.9-8.25s1.63-7.32,3.21-4.2,4,4.92,5,5a1.09,1.09,0,0,0,.55-2,12.72,12.72,0,0,1-2.16-2.79,8.59,8.59,0,0,1-1.08-2.62,28.8,28.8,0,0,1-.77-5.65l-.19-1.15c2.5-12.38,11-54.58,21.33-77.8l3,14.64,1.85,6.49L134.67,282l48.47-.64-7.23-27.84,8.78-29h0c9.51.21,33.91.57,38-1.27,5.11-2.28,31.58-35.64,31.58-35.64h0a61,61,0,0,0,5-4.29S260.8,182,259.83,181Z" style="fill:#ffbe9d"></path><path d="M132.56,261.34c1.4-4.8,8.62-28.54,8.62-28.54s3.55,19.35,2.62,21.68a40.33,40.33,0,0,1-3.05,5.76c-8.19,12.48-7.12,18.72-7.12,18.72l49.51-1.51c.12-6.92-4-23-4.84-25.59s2-11,2-11,5.6-5.68,5.38-8.6a47.39,47.39,0,0,0-1-7.8l36.67.7-4.1-19.93-35.36-2.59-11.76-1.1c-5.92,5-14.79,0-14.79,0-11.28,1.1-12.93,2.91-17.56,7.54-5.5,5.48-20.36,47.41-20.36,47.41Z" style="fill:#92E3A9"></path><path d="M161.84,256.51a10.67,10.67,0,0,1-2.61.13c-1.62,0-3.84-.11-6.29-.35s-4.65-.6-6.23-.91a10.26,10.26,0,0,1-2.53-.65,13,13,0,0,1,2.59.25c1.6.2,3.79.48,6.23.73s4.64.41,6.24.52A12.78,12.78,0,0,1,161.84,256.51Z" style="fill:#263238"></path><path d="M165.22,252.3a11.33,11.33,0,0,1-2.7.92,48.88,48.88,0,0,1-6.77,1.29,48.08,48.08,0,0,1-6.88.33,11.8,11.8,0,0,1-2.84-.26,16.11,16.11,0,0,1,2.84-.15c1.75-.06,4.16-.18,6.82-.5s5-.75,6.74-1.11A16,16,0,0,1,165.22,252.3Z" style="fill:#263238"></path><path d="M181.88,233.52a10.51,10.51,0,0,1-.34,2.52c-.29,1.55-.74,3.67-1.31,6s-1.15,4.42-1.61,5.93a10.49,10.49,0,0,1-.87,2.39,11.11,11.11,0,0,1,.47-2.5c.42-1.74.91-3.74,1.44-5.95s1.05-4.21,1.48-6A11.17,11.17,0,0,1,181.88,233.52Z" style="fill:#263238"></path><path d="M133.3,279.3l49.5-1.51,21.54,84.12-4,96.49h-26.2L177.41,364,158.26,305.4l2.91,154-26.46.39L132,315.2c-.11-4.09-1.46-13.33-1-17.39Z" style="fill:#455a64"></path><path d="M164.86,306.59a9.52,9.52,0,0,1-2.43-.14c-1.49-.18-3.54-.49-5.78-.94s-4.26-1-5.7-1.37a9.58,9.58,0,0,1-2.3-.81c0-.16,3.64.71,8.11,1.61S164.88,306.42,164.86,306.59Z" style="fill:#263238"></path><path d="M200.13,453.11c0,.16-5.93.29-13.25.29s-12.53-.23-12.53-.39,5.21-.19,12.53-.19S200.13,453,200.13,453.11Z" style="fill:#263238"></path><path d="M160.8,453.4c0,.16-5.76.29-12.86.29s-12.85-.13-12.85-.29,5.75-.29,12.85-.29S160.8,453.24,160.8,453.4Z" style="fill:#263238"></path><path d="M157.57,453.4c-.16,0-.86-33.29-1.56-74.36s-1.13-74.36-1-74.37S155.9,338,156.6,379,157.73,453.39,157.57,453.4Z" style="fill:#263238"></path><path d="M196.61,453.11a3.26,3.26,0,0,1,0-.46c0-.33,0-.77,0-1.34,0-1.2.08-2.93.15-5.14.15-4.49.38-10.94.65-18.9.61-16,1.46-38,2.39-62.36,0-.23,0-.45,0-.66v.08c-5.87-23.49-11.17-44.73-15-60.13L180.35,286c-.51-2.13-.91-3.79-1.18-5q-.19-.81-.3-1.29a3,3,0,0,1-.08-.44,1.93,1.93,0,0,1,.14.43c.08.31.2.73.35,1.27.3,1.16.74,2.82,1.29,4.94,1.11,4.31,2.7,10.51,4.66,18.16,3.89,15.39,9.25,36.61,15.19,60.09v.09c0,.2,0,.43,0,.65-1,24.34-1.9,46.37-2.56,62.35-.35,8-.64,14.41-.84,18.9-.11,2.21-.2,3.93-.26,5.14,0,.56-.06,1-.08,1.33A2.43,2.43,0,0,1,196.61,453.11Z" style="fill:#263238"></path><path d="M188.07,362.29a30.62,30.62,0,0,1-5.79,1.29c-2.4.41-4.48.69-5.39.75v-.23c.3.08.46.15.45.19s-.18,0-.49,0l-.67,0,.67-.2c.87-.26,2.93-.68,5.34-1.1A30.27,30.27,0,0,1,188.07,362.29Z" style="fill:#263238"></path><path d="M187.57,365.5a30.36,30.36,0,0,1-5.21-.24,31.23,31.23,0,0,1-5.19-.57,19.32,19.32,0,0,1,5.24,0A19.18,19.18,0,0,1,187.57,365.5Z" style="fill:#263238"></path><path d="M133.08,281.07c1.19,1.69,2.9,2.28,4.88,2.6a22,22,0,0,0,6-.11c12.78-1.42,26.32-2.73,38.83-5.77-16.2.9-33.3.6-49.5,1.51,0,0-.14,1.11-.17,1.38" style="fill:#263238"></path><polygon points="149.78 303.91 158.9 339.34 158.26 305.4 149.78 303.91" style="fill:#263238"></polygon><path d="M147.94,176.91c-3.52-.94-7.2,2.81-7.32,6.45,0,1,.11,2.24-.63,3s-2.06.55-3.17.64a5,5,0,0,0-4.47,4.39c-.16,1.62.49,3.36-.19,4.84s-2.25,2.08-3.34,3.18a7.16,7.16,0,0,0-1.75,5.53,20.75,20.75,0,0,0,1.55,5.76c.64,1.71,1.48,3.61,3.2,4.22h14.79l1.11-5.58,1.81,5.58h2.41l-1.3-36.23S150.63,177.62,147.94,176.91Z" style="fill:#263238"></path><path d="M127.71,194.21s-.16,0-.4.08a.79.79,0,0,0-.35,1,1.76,1.76,0,0,0,3.28-1.26,6.06,6.06,0,0,0-.81-1.34,4.78,4.78,0,0,1-.91-3.53,4.53,4.53,0,0,1,2.24-3.35,4.76,4.76,0,0,1,4.32-.25c1.36.59,2.54,1.46,3.85,1.28a1.76,1.76,0,0,0,1.45-.87,3.72,3.72,0,0,0,.2-1.78,8.08,8.08,0,0,1,2.33-6.25,6,6,0,0,1,4.22-1.62,4.37,4.37,0,0,1,1.22.21,1.33,1.33,0,0,1,.4.17,10.5,10.5,0,0,0-1.62-.18,5.9,5.9,0,0,0-4,1.69,7.75,7.75,0,0,0-2.11,6,4.06,4.06,0,0,1-.24,2,2.24,2.24,0,0,1-1.84,1.15,4.12,4.12,0,0,1-2.16-.38c-.68-.29-1.3-.66-1.94-.93a4.29,4.29,0,0,0-3.86.21,4.06,4.06,0,0,0-2,3,4.35,4.35,0,0,0,.8,3.23,6.13,6.13,0,0,1,.83,1.45,2.06,2.06,0,0,1-.08,1.6,2.09,2.09,0,0,1-1,1,2.06,2.06,0,0,1-1.28.13,1.91,1.91,0,0,1-1.47-1.32.89.89,0,0,1,.5-1.11C127.57,194.1,127.72,194.21,127.71,194.21Z" style="fill:#263238"></path><path d="M185,224.14a4.15,4.15,0,0,1-1.14,0,9.68,9.68,0,0,1-3-.87,11.33,11.33,0,0,1-3.7-2.78,10.27,10.27,0,0,1-2-10.72,11.25,11.25,0,0,1,2.48-3.91,9.64,9.64,0,0,1,2.49-1.88,3.51,3.51,0,0,1,1.06-.42,14.63,14.63,0,0,0-3.28,2.55,11.41,11.41,0,0,0-2.3,3.82,10,10,0,0,0,1.87,10.24,11.63,11.63,0,0,0,3.5,2.77A15.57,15.57,0,0,0,185,224.14Z" style="fill:#263238"></path></g></svg>